<?xml version="1.0" standalone="no"?><!--
  - Copyright (c) 2024 Leyramu. All rights reserved.
  - This project (Lersosa), including its source code, documentation, and any associated materials, is the intellectual property of Leyramu. No part of this software may be reproduced, distributed, or transmitted in any form or by any means, including photocopying, recording, or other electronic or mechanical methods, without the prior written permission of the copyright owner, Miraitowa_zcx, except in the case of brief quotations embodied in critical reviews and certain other noncommercial uses permitted by copyright law.
  - For inquiries related to licensing or usage outside the scope of this notice, please contact the copyright holder at 2038322151@qq.com.
  - The author disclaims all warranties, express or implied, including but not limited to the warranties of merchantability and fitness for a particular purpose. Under no circumstances shall the author be liable for any special, incidental, indirect, or consequential damages arising from the use of this software.
  - By using this project, users acknowledge and agree to abide by these terms and conditions.
  -->

<!DOCTYPE svg PUBLIC "-//W3C//DTD SVG 1.1//EN" "http://www.w3.org/Graphics/SVG/1.1/DTD/svg11.dtd">
<svg class="icon" height="200" p-id="3102" t="1575802859706" version="1.1" viewBox="0 0 1024 1024"
    width="200" xmlns="http://www.w3.org/2000/svg">
    <defs>
        <style type="text/css"></style>
    </defs>
    <path
        d="M896 224H128c-35.2 0-64 28.8-64 64v448c0 35.2 28.8 64 64 64h768c35.2 0 64-28.8 64-64V288c0-35.2-28.8-64-64-64z m0 480c0 19.2-12.8 32-32 32H160c-19.2 0-32-12.8-32-32V320c0-19.2 12.8-32 32-32h704c19.2 0 32 12.8 32 32v384z"
        p-id="3103"></path>
    <path d="M224 352c-19.2 0-32 12.8-32 32v256c0 16 12.8 32 32 32s32-12.8 32-32V384c0-16-12.8-32-32-32z"
        p-id="3104"></path>
</svg>
