<?xml version="1.0" standalone="no"?><!--
  - Copyright (c) 2024 Leyramu. All rights reserved.
  - This project (Lersosa), including its source code, documentation, and any associated materials, is the intellectual property of Leyramu. No part of this software may be reproduced, distributed, or transmitted in any form or by any means, including photocopying, recording, or other electronic or mechanical methods, without the prior written permission of the copyright owner, Miraitowa_zcx, except in the case of brief quotations embodied in critical reviews and certain other noncommercial uses permitted by copyright law.
  - For inquiries related to licensing or usage outside the scope of this notice, please contact the copyright holder at 2038322151@qq.com.
  - The author disclaims all warranties, express or implied, including but not limited to the warranties of merchantability and fitness for a particular purpose. Under no circumstances shall the author be liable for any special, incidental, indirect, or consequential damages arising from the use of this software.
  - By using this project, users acknowledge and agree to abide by these terms and conditions.
  -->

<!DOCTYPE svg PUBLIC "-//W3C//DTD SVG 1.1//EN" "http://www.w3.org/Graphics/SVG/1.1/DTD/svg11.dtd">
<svg style="" class="icon" height="200" p-id="6717" t="1547360688278" version="1.1"
    viewBox="0 0 1024 1024" width="200" xmlns="http://www.w3.org/2000/svg">
    <defs>
        <style type="text/css"></style>
    </defs>
    <path
        d="M890 120H134a70 70 0 0 0-70 70v500a70 70 0 0 0 70 70h756a70 70 0 0 0 70-70V190a70 70 0 0 0-70-70z m-10 520a40 40 0 0 1-40 40H712V448a40 40 0 0 0-80 0v232h-80V368a40 40 0 0 0-80 0v312h-80V512a40 40 0 0 0-80 0v168H184a40 40 0 0 1-40-40V240a40 40 0 0 1 40-40h656a40 40 0 0 1 40 40zM696 824H328a40 40 0 0 0 0 80h368a40 40 0 0 0 0-80z"
        p-id="6718"></path>
</svg>
