<!--
  - Copyright (c) 2024 Leyramu. All rights reserved.
  - This project (Lersosa), including its source code, documentation, and any associated materials, is the intellectual property of Leyramu. No part of this software may be reproduced, distributed, or transmitted in any form or by any means, including photocopying, recording, or other electronic or mechanical methods, without the prior written permission of the copyright owner, Miraitowa_zcx, except in the case of brief quotations embodied in critical reviews and certain other noncommercial uses permitted by copyright law.
  - For inquiries related to licensing or usage outside the scope of this notice, please contact the copyright holder at 2038322151@qq.com.
  - The author disclaims all warranties, express or implied, including but not limited to the warranties of merchantability and fitness for a particular purpose. Under no circumstances shall the author be liable for any special, incidental, indirect, or consequential damages arising from the use of this software.
  - By using this project, users acknowledge and agree to abide by these terms and conditions.
  -->

<svg height="128" width="128" xmlns="http://www.w3.org/2000/svg">
    <path
        d="M.006.064h127.988v31.104H.006V.064zm0 38.016h38.396v41.472H.006V38.08zm0 48.384h38.396v41.472H.006V86.464zM44.802 38.08h38.396v41.472H44.802V38.08zm0 48.384h38.396v41.472H44.802V86.464zM89.598 38.08h38.396v41.472H89.598zm0 48.384h38.396v41.472H89.598z" />
    <path
        d="M.006.064h127.988v31.104H.006V.064zm0 38.016h38.396v41.472H.006V38.08zm0 48.384h38.396v41.472H.006V86.464zM44.802 38.08h38.396v41.472H44.802V38.08zm0 48.384h38.396v41.472H44.802V86.464zM89.598 38.08h38.396v41.472H89.598zm0 48.384h38.396v41.472H89.598z" />
</svg>
