<!--
  - Copyright (c) 2024 Leyramu Group. All rights reserved.
  - Licensed under the Apache License, Version 2.0 (the "License");
  - you may not use this file except in compliance with the License.
  - You may obtain a copy of the License at
  -
  -      http://www.apache.org/licenses/LICENSE-2.0
  -
  - Unless required by applicable law or agreed to in writing, software
  - distributed under the License is distributed on an "AS IS" BASIS,
  - WITHOUT WARRANTIES OR CONDITIONS OF ANY KIND, either express or implied.
  - See the License for the specific language governing permissions and
  - limitations under the License.
  -
  - This project (Lersosa), including its source code, documentation, and any associated materials, is the intellectual property of Leyramu. No part of this software may be reproduced, distributed, or transmitted in any form or by any means, including photocopying, recording, or other electronic or mechanical methods, without the prior written permission of the copyright owner, Miraitowa_zcx, except in the case of brief quotations embodied in critical reviews and certain other noncommercial uses permitted by copyright law.
  -
  - For inquiries related to licensing or usage outside the scope of this notice, please contact the copyright holder at 2038322151@qq.com.
  -
  - The author disclaims all warranties, express or implied, including but not limited to the warranties of merchantability and fitness for a particular purpose. Under no circumstances shall the author be liable for any special, incidental, indirect, or consequential damages arising from the use of this software.
  -
  - By using this project, users acknowledge and agree to abide by these terms and conditions.
  -->

<svg width="128" height="128" xmlns="http://www.w3.org/2000/svg"><path d="M121.718 73.272v9.953c3.957-7.584 6.199-16.05 6.199-24.995C127.917 26.079 99.273 0 63.958 0 28.644 0 0 26.079 0 58.23c0 .403.028.806.028 1.21l22.97-25.953h13.34l-19.76 27.187h6.42V53.77l13.728-19.477v49.361H22.998V73.272H2.158c5.951 20.284 23.608 36.208 45.998 41.399-1.44 3.3-5.618 11.263-12.565 12.674-8.607 1.764 23.358.428 46.163-13.178 17.519-4.611 31.938-15.849 39.77-30.513h-13.506V73.272H85.02V59.464l22.998-25.977h13.008l-19.429 27.187h6.421v-7.433l13.727-19.402v39.433h-.027zm-78.24 2.822a10.516 10.516 0 0 1-.996-4.535V44.548c0-1.613.332-3.124.996-4.535a11.66 11.66 0 0 1 2.713-3.68c1.134-1.032 2.49-1.864 4.04-2.468 1.55-.605 3.21-.908 4.982-.908h11.292c1.77 0 3.431.303 4.981.908 1.522.604 2.85 1.41 3.986 2.418l-12.26 16.303v-2.898a1.96 1.96 0 0 0-.665-1.512c-.443-.403-.996-.604-1.66-.604-.665 0-1.218.201-1.661.604a1.96 1.96 0 0 0-.664 1.512v9.071L44.364 77.606a10.556 10.556 0 0 1-.886-1.512zm35.73-4.535c0 1.613-.332 3.124-.997 4.535a11.66 11.66 0 0 1-2.712 3.68c-1.134 1.032-2.49 1.864-4.04 2.469-1.55.604-3.21.907-4.982.907H55.185c-1.77 0-3.431-.303-4.981-.907-1.55-.605-2.906-1.437-4.041-2.47a12.49 12.49 0 0 1-1.384-1.512l13.727-18.217v6.375c0 .605.222 1.109.665 1.512.442.403.996.604 1.66.604.664 0 1.218-.201 1.66-.604a1.96 1.96 0 0 0 .665-1.512V53.87L75.97 36.838c.913.932 1.66 1.99 2.214 3.175.664 1.41.996 2.922.996 4.535v27.011h.028z"/></svg>
