<?xml version="1.0" standalone="no"?><!--
  - Copyright (c) 2024 Leyramu Group. All rights reserved.
  - Licensed under the Apache License, Version 2.0 (the "License");
  - you may not use this file except in compliance with the License.
  - You may obtain a copy of the License at
  -
  -      http://www.apache.org/licenses/LICENSE-2.0
  -
  - Unless required by applicable law or agreed to in writing, software
  - distributed under the License is distributed on an "AS IS" BASIS,
  - WITHOUT WARRANTIES OR CONDITIONS OF ANY KIND, either express or implied.
  - See the License for the specific language governing permissions and
  - limitations under the License.
  -
  - This project (Lersosa), including its source code, documentation, and any associated materials, is the intellectual property of Leyramu. No part of this software may be reproduced, distributed, or transmitted in any form or by any means, including photocopying, recording, or other electronic or mechanical methods, without the prior written permission of the copyright owner, Miraitowa_zcx, except in the case of brief quotations embodied in critical reviews and certain other noncommercial uses permitted by copyright law.
  -
  - For inquiries related to licensing or usage outside the scope of this notice, please contact the copyright holder at 2038322151@qq.com.
  -
  - The author disclaims all warranties, express or implied, including but not limited to the warranties of merchantability and fitness for a particular purpose. Under no circumstances shall the author be liable for any special, incidental, indirect, or consequential damages arising from the use of this software.
  -
  - By using this project, users acknowledge and agree to abide by these terms and conditions.
  -->

<!DOCTYPE svg PUBLIC "-//W3C//DTD SVG 1.1//EN" "http://www.w3.org/Graphics/SVG/1.1/DTD/svg11.dtd"><svg t="1568899741379" class="icon" viewBox="0 0 1024 1024" version="1.1" xmlns="http://www.w3.org/2000/svg" p-id="2054" xmlns:xlink="http://www.w3.org/1999/xlink" width="200" height="200"><defs><style type="text/css"></style></defs><path d="M960 591.424V368.96c0-0.288 0.16-0.512 0.16-0.768S960 367.68 960 367.424V192a32 32 0 0 0-32-32H96a32 32 0 0 0-32 32v175.424c0 0.288-0.16 0.512-0.16 0.768s0.16 0.48 0.16 0.768v222.464c0 0.288-0.16 0.512-0.16 0.768s0.16 0.48 0.16 0.768V864a32 32 0 0 0 32 32h832a32 32 0 0 0 32-32v-271.04c0-0.288 0.16-0.512 0.16-0.768S960 591.68 960 591.424z m-560-31.232v-160H608v160h-208z m208 64V832h-208v-207.808H608z m-480-224h208v160H128v-160z m544 0h224v160h-224v-160zM896 224v112.192H128V224h768zM128 624.192h208V832H128v-207.808zM672 832v-207.808h224V832h-224z" p-id="2055"></path></svg>
