<?xml version="1.0" standalone="no"?><!--
  - Copyright (c) 2024 Leyramu Group. All rights reserved.
  - Licensed under the Apache License, Version 2.0 (the "License");
  - you may not use this file except in compliance with the License.
  - You may obtain a copy of the License at
  -
  -      http://www.apache.org/licenses/LICENSE-2.0
  -
  - Unless required by applicable law or agreed to in writing, software
  - distributed under the License is distributed on an "AS IS" BASIS,
  - WITHOUT WARRANTIES OR CONDITIONS OF ANY KIND, either express or implied.
  - See the License for the specific language governing permissions and
  - limitations under the License.
  -
  - This project (Lersosa), including its source code, documentation, and any associated materials, is the intellectual property of Leyramu. No part of this software may be reproduced, distributed, or transmitted in any form or by any means, including photocopying, recording, or other electronic or mechanical methods, without the prior written permission of the copyright owner, Miraitowa_zcx, except in the case of brief quotations embodied in critical reviews and certain other noncommercial uses permitted by copyright law.
  -
  - For inquiries related to licensing or usage outside the scope of this notice, please contact the copyright holder at 2038322151@qq.com.
  -
  - The author disclaims all warranties, express or implied, including but not limited to the warranties of merchantability and fitness for a particular purpose. Under no circumstances shall the author be liable for any special, incidental, indirect, or consequential damages arising from the use of this software.
  -
  - By using this project, users acknowledge and agree to abide by these terms and conditions.
  -->

<!DOCTYPE svg PUBLIC "-//W3C//DTD SVG 1.1//EN" "http://www.w3.org/Graphics/SVG/1.1/DTD/svg11.dtd"><svg t="1577186573535" class="icon" viewBox="0 0 1024 1024" version="1.1" xmlns="http://www.w3.org/2000/svg" p-id="1068" xmlns:xlink="http://www.w3.org/1999/xlink" width="81" height="81"><defs><style type="text/css"></style></defs><path d="M479.85714249 608.42857168h64.28571502c19.28571417 0 32.14285751-12.85714249 32.14285664-32.14285751s-12.85714249-32.14285751-32.14285664-32.14285664h-64.28571504c-19.28571417 0-32.14285751 12.85714249-32.14285664 32.14285662s12.85714249 32.14285751 32.14285664 32.14285753z m-2e-8 122.14285665h64.28571504c19.28571417 0 32.14285751-12.85714249 32.14285664-32.14285665s-12.85714249-32.14285751-32.14285664-32.14285751h-64.28571504c-19.28571417 0-32.14285751 12.85714249-32.14285664 32.14285751s12.85714249 32.14285751 32.14285664 32.14285664z m353.57142921-559.28571416h-128.57142921v-32.14285664c0-19.28571417-12.85714249-32.14285751-32.14285664-32.14285753s-32.14285751 12.85714249-32.14285751 32.14285753v32.14285664h-257.14285665v-32.14285664c0-19.28571417-12.85714249-32.14285751-32.14285752-32.14285753s-32.14285751 12.85714249-32.14285664 32.14285753v32.14285664h-128.57142919c-70.71428585 0-128.57142832 57.85714249-128.57142832 122.14285751v501.42857081c0 70.71428585 57.85714249 128.57142832 128.57142832 122.14285751h642.85714335c70.71428585 0 128.57142832-57.85714249 128.57142833-122.14285751v-501.42857081c0-70.71428585-57.85714249-122.14285753-128.57142833-122.14285751z m64.28571415 623.57142832c0 32.14285751-32.14285751 64.28571415-64.28571416 64.28571504h-642.85714335c-32.14285751 0-64.28571415-25.71428583-64.28571417-64.28571504v-372.85714249h771.42857168v372.85714249z m0-437.14285664h-771.42857168v-64.28571417c0-32.14285751 32.14285751-64.28571415 64.28571417-64.28571415h128.57142919v32.14285664c0 19.28571417 12.85714249 32.14285751 32.14285664 32.14285751s32.14285751-12.85714249 32.14285753-32.14285751v-32.14285664h257.14285665v32.14285664c0 19.28571417 12.85714249 32.14285751 32.1428575 32.14285751s32.14285751-12.85714249 32.14285664-32.14285751v-32.14285664h128.57142921c32.14285751 0 64.28571415 25.71428583 64.28571415 64.28571415v64.28571417z m-610.71428583 372.85714247h64.28571415c19.28571417 0 32.14285751-12.85714249 32.14285753-32.14285664s-12.85714249-32.14285751-32.14285753-32.14285751h-64.28571415c-19.28571417 0-32.14285751 12.85714249-32.14285751 32.14285751s12.85714249 32.14285751 32.14285751 32.14285665z m385.71428583-122.14285664h64.28571417c19.28571417 0 32.14285751-12.85714249 32.14285751-32.14285751s-12.85714249-32.14285751-32.14285751-32.14285664h-64.28571415c-19.28571417 0-32.14285751 12.85714249-32.14285753 32.14285664s12.85714249 32.14285751 32.14285753 32.14285751z m-385.71428583 0h64.28571415c19.28571417 0 32.14285751-12.85714249 32.14285753-32.14285751s-12.85714249-32.14285751-32.14285753-32.14285664h-64.28571415c-19.28571417 0-32.14285751 12.85714249-32.14285751 32.14285664s12.85714249 32.14285751 32.14285751 32.14285751z m385.71428583 122.14285665h64.28571417c19.28571417 0 32.14285751-12.85714249 32.14285751-32.14285665s-12.85714249-32.14285751-32.14285751-32.14285751h-64.28571415c-19.28571417 0-32.14285751 12.85714249-32.14285753 32.14285751s12.85714249 32.14285751 32.14285753 32.14285665z" p-id="1069"></path></svg>
