<?xml version="1.0" standalone="no"?><!--
  - Copyright (c) 2024 Leyramu Group. All rights reserved.
  - Licensed under the Apache License, Version 2.0 (the "License");
  - you may not use this file except in compliance with the License.
  - You may obtain a copy of the License at
  -
  -      http://www.apache.org/licenses/LICENSE-2.0
  -
  - Unless required by applicable law or agreed to in writing, software
  - distributed under the License is distributed on an "AS IS" BASIS,
  - WITHOUT WARRANTIES OR CONDITIONS OF ANY KIND, either express or implied.
  - See the License for the specific language governing permissions and
  - limitations under the License.
  -
  - This project (Lersosa), including its source code, documentation, and any associated materials, is the intellectual property of Leyramu. No part of this software may be reproduced, distributed, or transmitted in any form or by any means, including photocopying, recording, or other electronic or mechanical methods, without the prior written permission of the copyright owner, Miraitowa_zcx, except in the case of brief quotations embodied in critical reviews and certain other noncommercial uses permitted by copyright law.
  -
  - For inquiries related to licensing or usage outside the scope of this notice, please contact the copyright holder at 2038322151@qq.com.
  -
  - The author disclaims all warranties, express or implied, including but not limited to the warranties of merchantability and fitness for a particular purpose. Under no circumstances shall the author be liable for any special, incidental, indirect, or consequential damages arising from the use of this software.
  -
  - By using this project, users acknowledge and agree to abide by these terms and conditions.
  -->

<!DOCTYPE svg PUBLIC "-//W3C//DTD SVG 1.1//EN" "http://www.w3.org/Graphics/SVG/1.1/DTD/svg11.dtd"><svg t="1579774833889" class="icon" viewBox="0 0 1024 1024" version="1.1" xmlns="http://www.w3.org/2000/svg" p-id="1376" xmlns:xlink="http://www.w3.org/1999/xlink" width="200" height="200"><defs><style type="text/css"></style></defs><path d="M887.466667 192.853333h-100.693334V119.466667c0-10.24-6.826667-17.066667-17.066666-17.066667s-17.066667 6.826667-17.066667 17.066667v73.386666H303.786667V119.466667c0-10.24-6.826667-17.066667-17.066667-17.066667s-17.066667 6.826667-17.066667 17.066667v73.386666H168.96c-46.08 0-85.333333 37.546667-85.333333 85.333334V836.266667c0 46.08 37.546667 85.333333 85.333333 85.333333H887.466667c46.08 0 85.333333-37.546667 85.333333-85.333333V278.186667c0-47.786667-37.546667-85.333333-85.333333-85.333334z m-718.506667 34.133334h100.693333v66.56c0 10.24 6.826667 17.066667 17.066667 17.066666s17.066667-6.826667 17.066667-17.066666v-66.56h450.56v66.56c0 10.24 6.826667 17.066667 17.066666 17.066666s17.066667-6.826667 17.066667-17.066666v-66.56H887.466667c27.306667 0 51.2 22.186667 51.2 51.2v88.746666H117.76v-88.746666c0-29.013333 22.186667-51.2 51.2-51.2zM887.466667 887.466667H168.96c-27.306667 0-51.2-22.186667-51.2-51.2V401.066667H938.666667V836.266667c0 27.306667-22.186667 51.2-51.2 51.2z" p-id="1377"></path><path d="M858.453333 493.226667H327.68c-10.24 0-17.066667 6.826667-17.066667 17.066666v114.346667h-116.053333c-10.24 0-17.066667 6.826667-17.066667 17.066667v133.12c0 10.24 6.826667 17.066667 17.066667 17.066666H460.8c10.24 0 17.066667-6.826667 17.066667-17.066666v-114.346667h380.586666c10.24 0 17.066667-6.826667 17.066667-17.066667v-133.12c0-10.24-6.826667-17.066667-17.066667-17.066666z m-413.013333 34.133333v97.28h-98.986667v-97.28h98.986667z m-230.4 131.413333h98.986667v98.986667h-98.986667v-98.986667z m131.413333 97.28v-97.28h98.986667v97.28h-98.986667z m133.12-228.693333h97.28v98.986667h-97.28v-98.986667z m131.413334 0h98.986666v98.986667h-98.986666v-98.986667z m230.4 97.28h-98.986667v-98.986667h98.986667v98.986667z" p-id="1378"></path></svg>
