<!--
  - Copyright (c) 2024 Leyramu. All rights reserved.
  - This project (Lersosa), including its source code, documentation, and any associated materials, is the intellectual property of Leyramu. No part of this software may be reproduced, distributed, or transmitted in any form or by any means, including photocopying, recording, or other electronic or mechanical methods, without the prior written permission of the copyright owner, Miraitowa_zcx, except in the case of brief quotations embodied in critical reviews and certain other noncommercial uses permitted by copyright law.
  - For inquiries related to licensing or usage outside the scope of this notice, please contact the copyright holder at 2038322151@qq.com.
  - The author disclaims all warranties, express or implied, including but not limited to the warranties of merchantability and fitness for a particular purpose. Under no circumstances shall the author be liable for any special, incidental, indirect, or consequential damages arising from the use of this software.
  - By using this project, users acknowledge and agree to abide by these terms and conditions.
  -->

<svg height="128" width="128" xmlns="http://www.w3.org/2000/svg">
    <path
        d="M96.258 57.462h31.421C124.794 27.323 100.426 2.956 70.287.07v31.422a32.856 32.856 0 0 1 25.971 25.97zm-38.796-25.97V.07C27.323 2.956 2.956 27.323.07 57.462h31.422a32.856 32.856 0 0 1 25.97-25.97zm12.825 64.766v31.421c30.46-2.885 54.507-27.253 57.713-57.712H96.579c-2.886 13.466-13.146 23.726-26.292 26.291zM31.492 70.287H.07c2.886 30.46 27.253 54.507 57.713 57.713V96.579c-13.466-2.886-23.726-13.146-26.291-26.292z" />
</svg>
