<!--
  - Copyright (c) 2024 Leyramu Group. All rights reserved.
  - Licensed under the Apache License, Version 2.0 (the "License");
  - you may not use this file except in compliance with the License.
  - You may obtain a copy of the License at
  -
  -      http://www.apache.org/licenses/LICENSE-2.0
  -
  - Unless required by applicable law or agreed to in writing, software
  - distributed under the License is distributed on an "AS IS" BASIS,
  - WITHOUT WARRANTIES OR CONDITIONS OF ANY KIND, either express or implied.
  - See the License for the specific language governing permissions and
  - limitations under the License.
  -
  - This project (Lersosa), including its source code, documentation, and any associated materials, is the intellectual property of Leyramu. No part of this software may be reproduced, distributed, or transmitted in any form or by any means, including photocopying, recording, or other electronic or mechanical methods, without the prior written permission of the copyright owner, Miraitowa_zcx, except in the case of brief quotations embodied in critical reviews and certain other noncommercial uses permitted by copyright law.
  -
  - For inquiries related to licensing or usage outside the scope of this notice, please contact the copyright holder at 2038322151@qq.com.
  -
  - The author disclaims all warranties, express or implied, including but not limited to the warranties of merchantability and fitness for a particular purpose. Under no circumstances shall the author be liable for any special, incidental, indirect, or consequential damages arising from the use of this software.
  -
  - By using this project, users acknowledge and agree to abide by these terms and conditions.
  -->

<svg width="128" height="128" xmlns="http://www.w3.org/2000/svg"><path d="M38.47 52L52 38.462l-23.648-23.67L43.209 0H.035L0 43.137l14.757-14.865L38.47 52zm74.773 47.726L89.526 76 76 89.536l23.648 23.672L84.795 128h43.174L128 84.863l-14.757 14.863zM89.538 52l23.668-23.648L128 43.207V.038L84.866 0 99.73 14.76 76 38.472 89.538 52zM38.46 76L14.792 99.651 0 84.794v43.173l43.137.033-14.865-14.757L52 89.53 38.46 76z"/></svg>
