<?xml version="1.0" standalone="no"?><!--
  - Copyright (c) 2024 Leyramu Group. All rights reserved.
  - Licensed under the Apache License, Version 2.0 (the "License");
  - you may not use this file except in compliance with the License.
  - You may obtain a copy of the License at
  -
  -      http://www.apache.org/licenses/LICENSE-2.0
  -
  - Unless required by applicable law or agreed to in writing, software
  - distributed under the License is distributed on an "AS IS" BASIS,
  - WITHOUT WARRANTIES OR CONDITIONS OF ANY KIND, either express or implied.
  - See the License for the specific language governing permissions and
  - limitations under the License.
  -
  - This project (Lersosa), including its source code, documentation, and any associated materials, is the intellectual property of Leyramu. No part of this software may be reproduced, distributed, or transmitted in any form or by any means, including photocopying, recording, or other electronic or mechanical methods, without the prior written permission of the copyright owner, Miraitowa_zcx, except in the case of brief quotations embodied in critical reviews and certain other noncommercial uses permitted by copyright law.
  -
  - For inquiries related to licensing or usage outside the scope of this notice, please contact the copyright holder at 2038322151@qq.com.
  -
  - The author disclaims all warranties, express or implied, including but not limited to the warranties of merchantability and fitness for a particular purpose. Under no circumstances shall the author be liable for any special, incidental, indirect, or consequential damages arising from the use of this software.
  -
  - By using this project, users acknowledge and agree to abide by these terms and conditions.
  -->

<!DOCTYPE svg PUBLIC "-//W3C//DTD SVG 1.1//EN" "http://www.w3.org/Graphics/SVG/1.1/DTD/svg11.dtd"><svg t="1686919908144" class="icon" viewBox="0 0 1024 1024" version="1.1" xmlns="http://www.w3.org/2000/svg" p-id="2521" width="200" height="200" xmlns:xlink="http://www.w3.org/1999/xlink"><path d="M512 992C246.895625 992 32 777.104375 32 512S246.895625 32 512 32s480 214.895625 480 480-214.895625 480-480 480z m242.9521875-533.3278125h-272.56875a23.7121875 23.7121875 0 0 0-23.71125 23.7121875l-0.024375 59.255625c0 13.08 10.6078125 23.7121875 23.6878125 23.7121875h165.96c13.104375 0 23.7121875 10.6078125 23.7121875 23.6878125v11.855625a71.1121875 71.1121875 0 0 1-71.1121875 71.1121875h-225.215625a23.7121875 23.7121875 0 0 1-23.6878125-23.7121875V423.1278125a71.1121875 71.1121875 0 0 1 71.0878125-71.1121875h331.824375a23.7121875 23.7121875 0 0 0 23.6878125-23.71125l0.0721875-59.2565625a23.7121875 23.7121875 0 0 0-23.68875-23.7121875H423.08a177.76875 177.76875 0 0 0-177.76875 177.7921875V754.953125c0 13.1034375 10.60875 23.7121875 23.713125 23.7121875h349.63125a159.984375 159.984375 0 0 0 159.984375-159.984375V482.36a23.7121875 23.7121875 0 0 0-23.7121875-23.6878125z" fill="#515151" p-id="2522"></path></svg>
