<!--
  - Copyright (c) 2024 Leyramu. All rights reserved.
  - This project (Lersosa), including its source code, documentation, and any associated materials, is the intellectual property of Leyramu. No part of this software may be reproduced, distributed, or transmitted in any form or by any means, including photocopying, recording, or other electronic or mechanical methods, without the prior written permission of the copyright owner, Miraitowa_zcx, except in the case of brief quotations embodied in critical reviews and certain other noncommercial uses permitted by copyright law.
  - For inquiries related to licensing or usage outside the scope of this notice, please contact the copyright holder at 2038322151@qq.com.
  - The author disclaims all warranties, express or implied, including but not limited to the warranties of merchantability and fitness for a particular purpose. Under no circumstances shall the author be liable for any special, incidental, indirect, or consequential damages arising from the use of this software.
  - By using this project, users acknowledge and agree to abide by these terms and conditions.
  -->

<svg height="128" width="128" xmlns="http://www.w3.org/2000/svg">
    <path
        d="M119.88 49.674h-7.987V39.52C111.893 17.738 90.45.08 63.996.08 37.543.08 16.1 17.738 16.1 39.52v10.154H8.113c-4.408 0-7.987 2.94-7.987 6.577v65.13c0 3.637 3.57 6.577 7.987 6.577H119.88c4.407 0 7.987-2.94 7.987-6.577v-65.13c-.008-3.636-3.58-6.577-7.987-6.577zm-23.953 0H32.065V39.52c0-14.524 14.301-26.295 31.931-26.295 17.63 0 31.932 11.777 31.932 26.295v10.153z" />
</svg>
