<!--
  - Copyright (c) 2024 Leyramu Group. All rights reserved.
  - Licensed under the Apache License, Version 2.0 (the "License");
  - you may not use this file except in compliance with the License.
  - You may obtain a copy of the License at
  -
  -      http://www.apache.org/licenses/LICENSE-2.0
  -
  - Unless required by applicable law or agreed to in writing, software
  - distributed under the License is distributed on an "AS IS" BASIS,
  - WITHOUT WARRANTIES OR CONDITIONS OF ANY KIND, either express or implied.
  - See the License for the specific language governing permissions and
  - limitations under the License.
  -
  - This project (Lersosa), including its source code, documentation, and any associated materials, is the intellectual property of Leyramu. No part of this software may be reproduced, distributed, or transmitted in any form or by any means, including photocopying, recording, or other electronic or mechanical methods, without the prior written permission of the copyright owner, Miraitowa_zcx, except in the case of brief quotations embodied in critical reviews and certain other noncommercial uses permitted by copyright law.
  -
  - For inquiries related to licensing or usage outside the scope of this notice, please contact the copyright holder at 2038322151@qq.com.
  -
  - The author disclaims all warranties, express or implied, including but not limited to the warranties of merchantability and fitness for a particular purpose. Under no circumstances shall the author be liable for any special, incidental, indirect, or consequential damages arising from the use of this software.
  -
  - By using this project, users acknowledge and agree to abide by these terms and conditions.
  -->

<svg t="1715953291934" class="icon" viewBox="0 0 1061 1024" version="1.1" xmlns="http://www.w3.org/2000/svg" p-id="1715" id="mx_n_1715953291935" width="200" height="200"><path d="M447.122465 467.332105L49.240301 268.161564A33.501036 33.501036 0 0 0 0.136043 300.744763v441.020484a33.042117 33.042117 0 0 0 16.06214 27.994016L413.162511 1018.034062a33.959954 33.959954 0 0 0 17.438895 5.50702 33.042117 33.042117 0 0 0 33.042117-33.042118V497.161795a33.042117 33.042117 0 0 0-17.438895-29.82969zM398.018207 931.298504l-331.339011-208.348907v-367.134638l331.339011 162.915996zM1046.010843 263.572381a33.042117 33.042117 0 0 0-31.665363 0L550.838 467.332105a33.042117 33.042117 0 0 0-19.733487 30.288608v493.33717a33.042117 33.042117 0 0 0 49.563176 28.452934l463.048562-265.254776a33.042117 33.042117 0 0 0 16.521059-28.452934V291.566398a33.042117 33.042117 0 0 0-14.685386-27.994017z m-50.939931 441.020484L596.72983 931.298504v-413.026468l397.882163-176.224626zM991.399565 178.672496a33.042117 33.042117 0 0 0-22.486996-29.829689L550.838 1.530034a32.583199 32.583199 0 0 0-19.733487 0L83.659173 158.021173a33.042117 33.042117 0 0 0-4.130264 61.036134l397.882163 199.170541a33.042117 33.042117 0 0 0 14.685386 3.212428 33.959954 33.959954 0 0 0 13.30863 0l463.966399-205.595398a33.042117 33.042117 0 0 0 22.028078-37.172382zM494.391049 349.849021L180.490934 195.193555l358.874108-125.743613 328.126583 112.434982z m0 0" fill="currentColor" p-id="1716"></path></svg>
