<?xml version="1.0" standalone="no"?><!--
  - Copyright (c) 2024 Leyramu Group. All rights reserved.
  - Licensed under the Apache License, Version 2.0 (the "License");
  - you may not use this file except in compliance with the License.
  - You may obtain a copy of the License at
  -
  -      http://www.apache.org/licenses/LICENSE-2.0
  -
  - Unless required by applicable law or agreed to in writing, software
  - distributed under the License is distributed on an "AS IS" BASIS,
  - WITHOUT WARRANTIES OR CONDITIONS OF ANY KIND, either express or implied.
  - See the License for the specific language governing permissions and
  - limitations under the License.
  -
  - This project (Lersosa), including its source code, documentation, and any associated materials, is the intellectual property of Leyramu. No part of this software may be reproduced, distributed, or transmitted in any form or by any means, including photocopying, recording, or other electronic or mechanical methods, without the prior written permission of the copyright owner, Miraitowa_zcx, except in the case of brief quotations embodied in critical reviews and certain other noncommercial uses permitted by copyright law.
  -
  - For inquiries related to licensing or usage outside the scope of this notice, please contact the copyright holder at 2038322151@qq.com.
  -
  - The author disclaims all warranties, express or implied, including but not limited to the warranties of merchantability and fitness for a particular purpose. Under no circumstances shall the author be liable for any special, incidental, indirect, or consequential damages arising from the use of this software.
  -
  - By using this project, users acknowledge and agree to abide by these terms and conditions.
  -->

<!DOCTYPE svg PUBLIC "-//W3C//DTD SVG 1.1//EN" "http://www.w3.org/Graphics/SVG/1.1/DTD/svg11.dtd"><svg t="1575802846045" class="icon" viewBox="0 0 1024 1024" version="1.1" xmlns="http://www.w3.org/2000/svg" p-id="2750" xmlns:xlink="http://www.w3.org/1999/xlink" width="200" height="200"><defs><style type="text/css"></style></defs><path d="M868.593046 403.832442c-30.081109-28.844955-70.037123-44.753273-112.624057-44.753273L265.949606 359.079168c-42.554188 0-82.510202 15.908318-112.469538 44.690852-30.236652 28.782533-46.857191 67.222007-46.857191 108.198258l0 294.079782c0 40.977273 16.619516 79.414701 46.702672 108.136859 29.959336 28.844955 70.069869 44.814672 112.624057 44.814672l490.019383 0c42.585911 0 82.696444-15.969717 112.624057-44.814672 30.082132-28.844955 46.579875-67.222007 46.579875-108.136859L915.172921 511.968278C915.171897 471.053426 898.675178 432.677397 868.593046 403.832442zM841.821309 806.049083c0 22.098297-8.882298 42.772152-25.099654 58.306964-16.154935 15.661701-37.81935 24.203238-60.752666 24.203238L265.949606 888.559285c-22.934339 0-44.567032-8.54256-60.877509-24.264637-16.186657-15.474436-25.067932-36.148291-25.067932-58.246589L180.004165 511.968278c0-22.035876 8.881274-42.772152 25.192775-58.307987 16.186657-15.536858 37.81935-24.139793 60.753689-24.139793l490.019383 0c22.933315 0 44.597731 8.602935 60.752666 24.139793 16.21838 15.535835 25.099654 36.272112 25.099654 58.307987L841.822332 806.049083zM510.974136 135.440715c114.914216 0 208.318536 89.75214 208.318536 200.055338l73.350588 0c0-149.113109-126.366036-270.496667-281.669124-270.496667-155.333788 0-281.699824 121.383558-281.699824 270.496667l73.350588 0C302.623877 225.193879 396.059919 135.440715 510.974136 135.440715zM474.299865 747.244792l73.350588 0L547.650453 629.576859l-73.350588 0L474.299865 747.244792z" p-id="2751"></path></svg>
