<!--
  - Copyright (c) 2024 Leyramu Group. All rights reserved.
  - Licensed under the Apache License, Version 2.0 (the "License");
  - you may not use this file except in compliance with the License.
  - You may obtain a copy of the License at
  -
  -      http://www.apache.org/licenses/LICENSE-2.0
  -
  - Unless required by applicable law or agreed to in writing, software
  - distributed under the License is distributed on an "AS IS" BASIS,
  - WITHOUT WARRANTIES OR CONDITIONS OF ANY KIND, either express or implied.
  - See the License for the specific language governing permissions and
  - limitations under the License.
  -
  - This project (Lersosa), including its source code, documentation, and any associated materials, is the intellectual property of Leyramu. No part of this software may be reproduced, distributed, or transmitted in any form or by any means, including photocopying, recording, or other electronic or mechanical methods, without the prior written permission of the copyright owner, Miraitowa_zcx, except in the case of brief quotations embodied in critical reviews and certain other noncommercial uses permitted by copyright law.
  -
  - For inquiries related to licensing or usage outside the scope of this notice, please contact the copyright holder at 2038322151@qq.com.
  -
  - The author disclaims all warranties, express or implied, including but not limited to the warranties of merchantability and fitness for a particular purpose. Under no circumstances shall the author be liable for any special, incidental, indirect, or consequential damages arising from the use of this software.
  -
  - By using this project, users acknowledge and agree to abide by these terms and conditions.
  -->

<svg width="128" height="128" xmlns="http://www.w3.org/2000/svg"><path d="M95.648 118.762c0 5.035-3.563 9.121-7.979 9.121H7.98c-4.416 0-7.979-4.086-7.979-9.121C0 100.519 15.408 83.47 31.152 76.75c-9.099-6.43-15.216-17.863-15.216-30.987v-9.128c0-20.16 14.293-36.518 31.893-36.518s31.894 16.358 31.894 36.518v9.122c0 13.137-6.123 24.556-15.216 30.993 15.738 6.726 31.141 23.769 31.141 42.012z"/><path d="M106.032 118.252h15.867c3.376 0 6.101-3.125 6.101-6.972 0-13.957-11.787-26.984-23.819-32.123 6.955-4.919 11.638-13.66 11.638-23.704v-6.985c0-15.416-10.928-27.926-24.39-27.926-1.674 0-3.306.193-4.89.561 1.936 4.713 3.018 9.974 3.018 15.526v9.121c0 13.137-3.056 23.111-11.066 30.993 14.842 4.41 27.312 23.42 27.541 41.509z"/></svg>
