<!--
  - Copyright (c) 2024 Leyramu Group. All rights reserved.
  - Licensed under the Apache License, Version 2.0 (the "License");
  - you may not use this file except in compliance with the License.
  - You may obtain a copy of the License at
  -
  -      http://www.apache.org/licenses/LICENSE-2.0
  -
  - Unless required by applicable law or agreed to in writing, software
  - distributed under the License is distributed on an "AS IS" BASIS,
  - WITHOUT WARRANTIES OR CONDITIONS OF ANY KIND, either express or implied.
  - See the License for the specific language governing permissions and
  - limitations under the License.
  -
  - This project (Lersosa), including its source code, documentation, and any associated materials, is the intellectual property of Leyramu. No part of this software may be reproduced, distributed, or transmitted in any form or by any means, including photocopying, recording, or other electronic or mechanical methods, without the prior written permission of the copyright owner, Miraitowa_zcx, except in the case of brief quotations embodied in critical reviews and certain other noncommercial uses permitted by copyright law.
  -
  - For inquiries related to licensing or usage outside the scope of this notice, please contact the copyright holder at 2038322151@qq.com.
  -
  - The author disclaims all warranties, express or implied, including but not limited to the warranties of merchantability and fitness for a particular purpose. Under no circumstances shall the author be liable for any special, incidental, indirect, or consequential damages arising from the use of this software.
  -
  - By using this project, users acknowledge and agree to abide by these terms and conditions.
  -->

<svg width="128" height="128" xmlns="http://www.w3.org/2000/svg"><path d="M124.884 109.812L94.256 79.166c-.357-.357-.757-.629-1.129-.914a50.366 50.366 0 0 0 8.186-27.59C101.327 22.689 78.656 0 50.67 0 22.685 0 0 22.688 0 50.663c0 27.989 22.685 50.663 50.656 50.663 10.186 0 19.643-3.03 27.6-8.201.286.385.557.771.9 1.114l30.628 30.632a10.633 10.633 0 0 0 7.543 3.129c2.728 0 5.457-1.043 7.543-3.115 4.171-4.157 4.171-10.915.014-15.073M50.671 85.338C31.557 85.338 16 69.78 16 50.663c0-19.102 15.557-34.661 34.67-34.661 19.115 0 34.657 15.559 34.657 34.675 0 19.102-15.557 34.661-34.656 34.661"/></svg>
