<!--
  - Copyright (c) 2024 Leyramu Group. All rights reserved.
  - Licensed under the Apache License, Version 2.0 (the "License");
  - you may not use this file except in compliance with the License.
  - You may obtain a copy of the License at
  -
  -      http://www.apache.org/licenses/LICENSE-2.0
  -
  - Unless required by applicable law or agreed to in writing, software
  - distributed under the License is distributed on an "AS IS" BASIS,
  - WITHOUT WARRANTIES OR CONDITIONS OF ANY KIND, either express or implied.
  - See the License for the specific language governing permissions and
  - limitations under the License.
  -
  - This project (Lersosa), including its source code, documentation, and any associated materials, is the intellectual property of Leyramu. No part of this software may be reproduced, distributed, or transmitted in any form or by any means, including photocopying, recording, or other electronic or mechanical methods, without the prior written permission of the copyright owner, Miraitowa_zcx, except in the case of brief quotations embodied in critical reviews and certain other noncommercial uses permitted by copyright law.
  -
  - For inquiries related to licensing or usage outside the scope of this notice, please contact the copyright holder at 2038322151@qq.com.
  -
  - The author disclaims all warranties, express or implied, including but not limited to the warranties of merchantability and fitness for a particular purpose. Under no circumstances shall the author be liable for any special, incidental, indirect, or consequential damages arising from the use of this software.
  -
  - By using this project, users acknowledge and agree to abide by these terms and conditions.
  -->

<svg width="128" height="110" xmlns="http://www.w3.org/2000/svg"><path d="M86.635 33.334c1.467 0 2.917.113 4.358.283C87.078 14.392 67.58.111 45.321.111 20.44.111.055 17.987.055 40.687c0 13.104 6.781 23.863 18.115 32.209l-4.527 14.352 15.82-8.364c5.666 1.182 10.207 2.395 15.858 2.395 1.42 0 2.829-.073 4.227-.189-.886-3.19-1.398-6.53-1.398-9.996 0-20.845 16.98-37.76 38.485-37.76zm-24.34-12.936c3.407 0 5.665 2.363 5.665 5.954 0 3.576-2.258 5.97-5.666 5.97-3.392 0-6.795-2.395-6.795-5.97 0-3.591 3.403-5.954 6.795-5.954zM30.616 32.323c-3.393 0-6.818-2.395-6.818-5.971 0-3.591 3.425-5.954 6.818-5.954 3.392 0 5.65 2.363 5.65 5.954 0 3.576-2.258 5.97-5.65 5.97z"/><path d="M127.945 70.52c0-19.075-18.108-34.623-38.448-34.623-21.537 0-38.5 15.548-38.5 34.623 0 19.108 16.963 34.622 38.5 34.622 4.508 0 9.058-1.2 13.584-2.395l12.414 7.167-3.404-11.923c9.087-7.184 15.854-16.712 15.854-27.471zm-50.928-5.97c-2.254 0-4.53-2.362-4.53-4.773 0-2.378 2.276-4.771 4.53-4.771 3.422 0 5.665 2.393 5.665 4.771 0 2.41-2.243 4.773-5.665 4.773zm24.897 0c-2.24 0-4.498-2.362-4.498-4.773 0-2.378 2.258-4.771 4.498-4.771 3.392 0 5.665 2.393 5.665 4.771 0 2.41-2.273 4.773-5.665 4.773z"/></svg>
