<!--
  - Copyright (c) 2024 Leyramu Group. All rights reserved.
  - Licensed under the Apache License, Version 2.0 (the "License");
  - you may not use this file except in compliance with the License.
  - You may obtain a copy of the License at
  -
  -      http://www.apache.org/licenses/LICENSE-2.0
  -
  - Unless required by applicable law or agreed to in writing, software
  - distributed under the License is distributed on an "AS IS" BASIS,
  - WITHOUT WARRANTIES OR CONDITIONS OF ANY KIND, either express or implied.
  - See the License for the specific language governing permissions and
  - limitations under the License.
  -
  - This project (Lersosa), including its source code, documentation, and any associated materials, is the intellectual property of Leyramu. No part of this software may be reproduced, distributed, or transmitted in any form or by any means, including photocopying, recording, or other electronic or mechanical methods, without the prior written permission of the copyright owner, Miraitowa_zcx, except in the case of brief quotations embodied in critical reviews and certain other noncommercial uses permitted by copyright law.
  -
  - For inquiries related to licensing or usage outside the scope of this notice, please contact the copyright holder at 2038322151@qq.com.
  -
  - The author disclaims all warranties, express or implied, including but not limited to the warranties of merchantability and fitness for a particular purpose. Under no circumstances shall the author be liable for any special, incidental, indirect, or consequential damages arising from the use of this software.
  -
  - By using this project, users acknowledge and agree to abide by these terms and conditions.
  -->

<svg t="1716004936483" class="icon" viewBox="0 0 1024 1024" version="1.1" xmlns="http://www.w3.org/2000/svg" p-id="2712" width="200" height="200"><path d="M1024.99477 113.778v227.555a57.458 57.458 0 0 1-58.027 56.89H734.86277a57.458 57.458 0 0 1-58.027-56.89v-56.889H560.83877v455.112h115.996v-56.89a57.458 57.458 0 0 1 58.027-56.888h231.936a57.458 57.458 0 0 1 58.197 56.889v227.555a57.458 57.458 0 0 1-58.027 56.89H734.86277a57.458 57.458 0 0 1-58.027-56.89v-56.889H502.86877a57.458 57.458 0 0 1-58.027-56.889V568.89L274.51677 735.972a46.763 46.763 0 0 1-65.252 0l-195.754-192a44.658 44.658 0 0 1 0-64l195.754-192.057a46.763 46.763 0 0 1 65.252 0L445.01277 455.11V227.556a57.458 57.458 0 0 1 58.027-56.89h173.966v-56.888a57.458 57.458 0 0 1 58.026-56.89h231.936a57.458 57.458 0 0 1 58.027 56.89z" fill="currentColor" p-id="2713"></path></svg>
